<svg data-bbox="28 20 144 160" viewBox="0 0 200 200" height="200" width="200" xmlns="http://www.w3.org/2000/svg" data-type="shape">
    <g fill="#547a6a">
        <path d="M172 172.105l-.065-83.094a7.89 7.89 0 0 0-2.635-5.88l-64.103-57.226a7.88 7.88 0 0 0-10.499.001L30.634 83.128A7.891 7.891 0 0 0 28 89.013v83.098A7.887 7.887 0 0 0 35.884 180h34a7.887 7.887 0 0 0 7.884-7.889v-44.828a7.887 7.887 0 0 1 7.884-7.889h28.667a7.887 7.887 0 0 1 7.884 7.889v44.828a7.887 7.887 0 0 0 7.884 7.889h34.029c4.357 0 7.887-3.536 7.884-7.895z"></path>
        <path d="M132.069 31.41l31.357 28.145V31.41c0-6.302-5.105-11.41-11.403-11.41h-8.551c-6.298 0-11.403 5.108-11.403 11.41z"></path>
    </g>
</svg>