<svg data-bbox="20 20 160 159.999" viewBox="0 0 200 200" height="200" width="200" xmlns="http://www.w3.org/2000/svg" data-type="shape">
    <g fill="#547a6a">
        <path d="M174.754 137.015l-16.878-17.024c-7.055-7.116-18.563-7.186-25.705-.156l-.283.278-.803.794c-5.874 5.808-15.363 5.761-21.178-.105L78.719 89.344c-5.798-5.849-5.75-15.271.108-21.061l.001.001.283-.279c7.142-7.03 7.211-18.499.156-25.615L62.404 25.383c-7.061-7.122-18.581-7.185-25.72-.14l-.001-.001-11.238 11.11c-4.496 4.445-6.458 10.916-4.936 17.042 14.422 58.077 66.325 112.081 124.426 126.073 6.239 1.503 12.817-.21 17.377-4.711l12.003-11.848.284-.279c7.14-7.03 7.21-18.498.155-25.614z"></path>
    </g>
</svg>