<svg preserveAspectRatio="none" data-bbox="0.1 0 199.9 200" xmlns="http://www.w3.org/2000/svg" viewBox="0.1 0 199.9 200" role="presentation" aria-hidden="true">
    <g fill="#547a6a">
        <path d="M135.2 150.5c.7-.6 1.4-1.3 2.1-2 23.3-22.4 35.7-48.3 35.7-74.9C173 32.3 141 0 100.1 0c-41 0-73 32.4-73 73.6 0 26.6 12.3 52.5 35.7 74.9.7.7 1.4 1.3 2.1 1.9-22.9 2-64.8 7.8-64.8 24C0 194.6 65.4 200 100 200s100-5.3 100-25.4c0-16.3-43.1-22.1-64.8-24.1zM35.4 73.6C35.4 37 63.8 8.4 100 8.4s64.6 28.7 64.6 65.3c0 53.2-53.7 86.3-64.6 92.5-10.9-6.2-64.6-39.3-64.6-92.6zm64.6 118c-59.3 0-91.7-11.3-91.7-17.1 0-3.9 18.8-12.9 62.2-16.1.9-.1 1.6-.4 2.2-.9 13.5 11 24.7 16.8 25.3 17.1.6.3 1.2.5 1.9.5.6 0 1.3-.2 1.9-.5s11.5-5.9 24.6-16.5c.3.1.5.2.8.2 44.9 3 64.4 12.2 64.4 16.2.1 5.8-32.3 17.1-91.6 17.1zm0-96.9c17.5 0 31.7-14.2 31.7-31.7S117.5 31.4 100 31.4 68.3 45.6 68.3 63.1 82.5 94.7 100 94.7zm0-55c12.9 0 23.3 10.5 23.3 23.3S112.9 86.4 100 86.4 76.7 75.9 76.7 63.1 87.1 39.7 100 39.7z"></path>
    </g>
</svg>